<svg id="Capa_1" enable-background="new 0 0 512 512" height="512" viewBox="0 0 512 512" width="512" xmlns="http://www.w3.org/2000/svg"><g><circle cx="256" cy="256" fill="#ffbb96" r="256"/><path d="m512 256c0 141.38-114.62 256-256 256v-512c141.38 0 256 114.62 256 256z" fill="#f0a278"/><path d="m416 256c.19 88.38-72.2 160.13-160 160-87.57-.02-159.63-71.48-160-159.31-.19-44.64 17.9-85.05 47.22-114.18 27.433-27.832 77.633-14.797 86.49 25.62 3.14 14.32-.42 29.4-10.02 40.48-7.28 8.42-11.69 19.39-11.69 31.39 0 26.51 21.49 48 48 48 24.4.1 45.35-19.07 47.74-42.91 1.41-13.75-2.98-26.46-11.03-36-9.59-11.37-13.61-26.42-10.42-40.96 8.68-39.57 57.68-54.22 86.43-25.67 29.2 28.98 47.28 69.15 47.28 113.54z" fill="#36404f"/><path d="m416 256c.19 88.38-72.2 160.13-160 160v-128c24.4.1 45.35-19.07 47.74-42.91 1.41-13.75-2.98-26.46-11.03-36-9.59-11.37-13.61-26.42-10.42-40.96 8.68-39.57 57.68-54.22 86.43-25.67 29.2 28.98 47.28 69.15 47.28 113.54z" fill="#1f223a"/><path d="m457.99 512h-403.98c-.15-4.28-.22-8.56-.22-12.84 0-26.91 2.9-53.88 8.78-80.43 10.652-48.379 53.965-83.734 104.22-83.7 15.082-.035 31.913 5.409 44.6 15.96 12.97 10.64 28.79 15.96 44.61 15.96s31.64-5.32 44.61-15.96c11.909-9.751 27.803-15.947 44.6-15.96 50.07 0 93.41 34.81 104.22 83.7 6.81 30.78 9.63 62.11 8.56 93.27z" fill="#bf0358"/><path d="m457.99 512h-201.99v-145.05c15.82 0 31.64-5.32 44.61-15.96 11.909-9.751 27.803-15.947 44.6-15.96 50.07 0 93.41 34.81 104.22 83.7 6.81 30.78 9.63 62.11 8.56 93.27z" fill="#8f0246"/></g></svg>